PathFileType	4	(X/Y/Z)	C:\Users\Basilio\Documents\Thesis Gigler\squatting_fais\c3dfiles\019\SJ_pre4\markers_experimental.trc
DataRate	CameraRate	NumFrames	NumMarkers	Units	OrigDataRate	OrigDataStartFrame	OrigNumFrames
200.000000	200.000000	4	59	mm	200.000000	654	1308
Frame#	Time	LBHD			RBHD			C7			T10			CLAV			LSHO			LUUPA			LMUPA			LDUPA			LLEP			LMEP			LRAD			LUL			LRFIN			RSHO			RUPA1			RMUPA			RDUPA			RLEP			RMEP			RRAD			RUL			RUFIN			LASI			USACR			LSACR			RSACR			LTHI1			LTHI2			LTHI3			LTHI4			LLFC			LTIB1			LTIB2			LTIB3			LTIB4			LLMAL			LMMAL			LHEE			LMT1			LMT2			LMT5			RTHI			RTHI2			RTHI3			RTHI4			RLFC			RTIB1			RTIB2			RTIB3			RTIB4			RLMAL			RMMAL			RHEE			RMT1			RMT2			RMT5			FHD			RASI			
		X1	Y1	Z1	X2	Y2	Z2	X3	Y3	Z3	X4	Y4	Z4	X5	Y5	Z5	X6	Y6	Z6	X7	Y7	Z7	X8	Y8	Z8	X9	Y9	Z9	X10	Y10	Z10	X11	Y11	Z11	X12	Y12	Z12	X13	Y13	Z13	X14	Y14	Z14	X15	Y15	Z15	X16	Y16	Z16	X17	Y17	Z17	X18	Y18	Z18	X19	Y19	Z19	X20	Y20	Z20	X21	Y21	Z21	X22	Y22	Z22	X23	Y23	Z23	X24	Y24	Z24	X25	Y25	Z25	X26	Y26	Z26	X27	Y27	Z27	X28	Y28	Z28	X29	Y29	Z29	X30	Y30	Z30	X31	Y31	Z31	X32	Y32	Z32	X33	Y33	Z33	X34	Y34	Z34	X35	Y35	Z35	X36	Y36	Z36	X37	Y37	Z37	X38	Y38	Z38	X39	Y39	Z39	X40	Y40	Z40	X41	Y41	Z41	X42	Y42	Z42	X43	Y43	Z43	X44	Y44	Z44	X45	Y45	Z45	X46	Y46	Z46	X47	Y47	Z47	X48	Y48	Z48	X49	Y49	Z49	X50	Y50	Z50	X51	Y51	Z51	X52	Y52	Z52	X53	Y53	Z53	X54	Y54	Z54	X55	Y55	Z55	X56	Y56	Z56	X57	Y57	Z57	X58	Y58	Z58	X59	Y59	Z59	

655	3.27	-44.99875259399415	928.8562011718752	-1011.869323730469	-43.90289306640626	927.2473144531252	-872.5476684570315	-129.8706359863282	831.2503662109377	-931.395202636719	-385.8590698242189	704.6934204101564	-935.4055175781252	-66.7694778442383	695.7162475585939	-933.2244262695315	-79.42276763916017	766.5656738281251	-1084.304809570313	-187.9394683837891	703.5032958984376	-1201.266235351563	-224.3065185546876	673.8466796875001	-1184.382690429688	-241.0348815917969	686.9926757812501	-1239.731201171875	-298.8596801757813	694.5956420898439	-1301.994506835938	-344.8362426757813	750.8238525390626	-1287.032836914063	-482.6167297363282	585.6349487304689	-1156.591430664063	-472.6040344238282	539.2064208984376	-1206.371215820313	-451.6098937988282	561.0062866210939	-1111.250366210938	-66.13470458984376	759.9096069335939	-789.3745727539065	-182.7811279296875	756.5241088867189	-641.0858764648439	-198.2478332519532	708.0491943359376	-637.9243774414064	-229.4611816406251	733.2357177734376	-592.4562377929689	-294.4945373535157	698.4753417968751	-555.6097412109376	-327.8792114257813	755.1336669921876	-564.9026489257814	-475.7311401367189	601.4075317382814	-720.3109741210939	-460.1088867187501	544.1221923828126	-683.5173950195314	-448.665008544922	571.3004150390626	-774.0302734375002	-437.4263610839845	511.8299865722657	-1041.0087890625	-518.8910522460939	628.1292114257814	-939.8589477539065	-549.3411254882814	609.8680419921876	-966.063415527344	-546.1463012695314	608.2450561523439	-910.2388916015627	-419.7259826660157	437.2304992675782	-1176.328247070313	-343.6680603027344	470.3993530273439	-1198.86474609375	-330.9233398437501	511.7642211914064	-1177.998779296875	-292.5968322753907	439.3479309082032	-1214.120361328125	-208.7397613525391	421.7417907714845	-1219.325561523438	-173.3887634277344	290.4796752929688	-1194.332275390625	-250.5220336914063	269.7402648925782	-1233.174438476563	-214.5748291015626	255.8574676513672	-1213.610107421875	-245.0612030029297	186.4541473388672	-1171.935180664063	-363.9848632812501	95.53730773925783	-1179.234008789063	-328.7245178222657	96.44873809814456	-1098.979248046875	-414.2765502929689	43.78539276123048	-1114.129028320313	-206.6017761230469	56.9536476135254	-1153.738891601563	-214.6592102050782	59.45208740234376	-1193.05029296875	-266.4147338867188	35.59271240234376	-1234.921752929688	-477.7395019531251	474.3075256347657	-723.8702392578126	-422.9333801269532	499.3132934570314	-718.6260986328126	-414.7535400390626	518.9873046875001	-747.7131958007814	-354.7344055175782	475.7438354492189	-681.1099853515626	-212.2272644042969	426.1072998046876	-656.0592651367189	-190.9165344238282	260.7902832031251	-705.1585693359376	-281.8961181640626	208.8074645996094	-666.5136718750001	-244.0507202148438	189.840316772461	-692.4038085937501	-258.5423583984376	153.12548828125	-734.4172973632814	-355.4513549804688	97.02594757080081	-705.8090820312501	-317.0461425781251	94.34280395507814	-778.4082031250002	-402.075897216797	44.13051986694337	-770.9007568359377	-200.4500427246094	53.87962722778322	-713.9973754882814	-213.1805877685547	61.61330413818361	-670.5665283203126	-268.4143371582032	41.94763183593751	-634.5549926757814	94.39099121093751	924.257751464844	-874.2122802734377	nan	nan	nan	
656	3.275	-45.03195190429688	928.7266845703127	-1011.629028320313	-43.91522216796876	926.835388183594	-872.4527587890627	-129.7750549316407	831.0437622070315	-931.5052490234377	-385.8735961914064	704.6815795898439	-935.3967285156252	-66.68564605712892	695.4347534179689	-933.3403930664065	-79.05384063720705	766.4091186523439	-1084.6376953125	-187.8403625488282	703.0117797851564	-1201.324584960938	-224.2152099609376	673.4049682617189	-1184.433227539063	-240.9849548339844	686.5950927734376	-1239.891357421875	-298.6930847167969	694.1900024414064	-1302.084838867188	-344.5886535644532	750.4809570312501	-1287.29736328125	-482.6008300781251	585.7737426757814	-1156.56689453125	-472.8018188476564	539.3472290039064	-1206.30712890625	-451.6686096191407	561.1263427734376	-1111.217407226563	-66.06685638427736	759.4607543945314	-789.462829589844	-182.8130493164063	756.2024536132814	-641.0258178710939	-198.2331695556641	707.6203002929689	-637.9079589843751	-229.4593963623047	732.7259521484376	-592.2968750000001	-294.3355712890626	698.1188354492189	-555.5653076171876	-327.8923339843751	754.8715209960939	-564.7440795898439	-475.7714843750001	601.4607543945314	-720.2180175781251	-460.1994018554689	544.6149902343751	-682.8596801757814	-448.9363708496095	571.2702636718751	-773.9559326171877	-437.7252197265626	511.9484863281251	-1040.861083984375	-518.7593994140626	628.1633300781251	-939.7842407226565	-549.4285888671876	610.0230712890626	-965.9813232421877	-546.2211303710939	608.4211425781251	-910.229431152344	-419.943328857422	437.348358154297	-1176.243286132813	-343.7860717773438	470.4874877929689	-1198.824829101563	-331.1526184082032	511.8468322753907	-1177.968383789063	-292.8470153808594	439.4306640625001	-1214.060668945313	-208.8642272949219	421.7967834472657	-1219.39208984375	-173.5736541748047	290.5693969726563	-1194.24072265625	-250.6651458740235	269.7854003906251	-1233.217041015625	-214.7391662597657	255.925521850586	-1213.62255859375	-245.1199188232422	186.5122375488282	-1171.91064453125	-364.1053466796876	95.59152984619142	-1179.316040039063	-328.6953430175782	96.44867706298831	-1098.98486328125	-414.334197998047	43.86570739746094	-1114.103759765625	-206.5677185058594	56.90344238281251	-1153.743774414063	-214.7410888671876	59.5314178466797	-1193.050537109375	-266.4193115234376	35.57513427734376	-1234.8037109375	-477.8543090820314	474.3000488281251	-723.8208618164064	-423.1860961914064	499.3593750000001	-718.7524414062501	-414.894744873047	519.0048828125001	-747.7186279296876	-354.8367919921876	475.8070068359376	-681.1327514648439	-212.3040008544922	426.1366577148439	-656.0728149414064	-191.1009063720703	260.9310913085938	-705.1608276367189	-281.9594421386719	208.8547821044922	-666.5145263671876	-244.1487884521485	189.9216918945313	-692.3118896484376	-257.1829833984376	152.2037963867188	-731.9346923828126	-355.4966430664063	97.02568817138675	-705.8018188476564	-317.0887756347657	94.2766571044922	-778.3994140625002	-402.1358947753907	44.14098739624024	-770.869323730469	-200.513412475586	53.81888961791994	-714.0795898437501	-213.1654205322266	61.60475158691408	-670.6025390625001	-268.4963073730469	41.94250869750977	-634.6258544921876	94.30984497070314	924.059753417969	-874.035583496094	nan	nan	nan	
657	3.28	-45.29333877563477	928.6409912109377	-1011.443542480469	-43.92026901245118	926.4011840820315	-872.3953857421877	-129.6560363769532	830.8787841796877	-931.6180419921877	-385.8661193847657	704.7084960937501	-935.3840332031252	-66.60250091552736	695.1586303710939	-933.398376464844	-78.88289642333986	766.0531005859376	-1084.5888671875	-188.6719818115235	702.4614868164064	-1200.533569335938	-224.0967407226563	673.0401000976564	-1184.589477539063	-240.8345947265626	686.1787109375001	-1240.046752929688	-298.3808898925782	693.7460937500001	-1302.326416015625	-344.1840515136719	750.1581420898439	-1287.490356445313	-482.6842651367189	585.9555664062501	-1156.54296875	-472.9880371093751	539.4551391601564	-1206.31640625	-451.9620361328126	561.3601684570314	-1110.970458984375	-66.08026123046876	759.1163940429689	-789.4248657226565	-182.6506500244141	756.0267333984376	-640.9019775390626	-198.2593688964844	707.3633422851564	-637.7767944335939	-229.4304656982422	732.3115234375001	-592.2119140625001	-294.2842712402344	697.8107910156251	-555.4754028320314	-327.8432922363282	754.6804199218751	-564.6410522460939	-475.8200988769532	601.5255737304689	-720.1351318359376	-460.3588867187501	544.8232421875001	-682.7363891601564	-449.1337280273439	571.3238525390626	-773.9250488281252	-438.0508422851564	512.0357055664064	-1040.685302734375	-518.8297729492189	628.2836914062501	-939.7229614257815	-549.5131225585939	610.1830444335939	-965.8448486328127	-546.3121337890626	608.6005859375001	-910.1602172851565	-420.1726074218751	437.4526672363282	-1176.218017578125	-344.0299987792969	470.5936279296876	-1198.7744140625	-331.3801574707032	511.9776000976564	-1177.944702148438	-293.1117248535157	439.5904541015626	-1213.979248046875	-209.1109924316407	421.9300537109376	-1219.325927734375	-173.6233367919922	290.6089782714844	-1194.324462890625	-250.8716430664063	269.8394165039063	-1233.1708984375	-214.8865356445313	256.0343627929688	-1213.6259765625	-245.2131042480469	186.5223541259766	-1171.944946289063	-364.1169128417969	95.55087280273439	-1179.308227539063	-328.7581176757813	96.45273590087893	-1098.982177734375	-414.3228454589845	43.81549835205079	-1114.09912109375	-206.5486907958985	56.94679641723634	-1153.703857421875	-214.9780883789063	59.65178680419923	-1193.053588867188	-266.4384155273438	35.5473976135254	-1234.924926757813	-478.0646362304689	474.4861755371095	-723.7653198242189	-423.2032470703126	499.6073303222657	-718.5328369140626	-415.0156555175782	519.0966186523439	-747.6467285156251	-354.9954528808594	475.8655700683595	-681.0921630859376	-212.4443817138672	426.179168701172	-656.0984497070314	-191.2079620361328	260.9528808593751	-705.2223510742189	-282.0108032226563	208.7729949951172	-666.5488281250001	-244.1894226074219	189.8880004882813	-692.4244995117189	-257.2040710449219	152.101791381836	-732.1016235351564	-355.5039062500001	96.97750091552737	-705.8129882812501	-317.2005310058594	94.31648254394533	-778.4194335937502	-402.1404113769532	44.14260864257813	-770.8699340820315	-200.5161743164063	53.83296966552736	-714.1468505859376	-213.2605743408204	61.65280532836915	-670.6147460937501	-268.5453491210938	42.00493621826173	-634.6578979492189	94.3504104614258	923.8787231445315	-873.9107055664065	nan	nan	nan	
658	3.285	-45.29216384887696	928.5062255859377	-1011.204833984375	-44.01829528808594	926.1697387695315	-872.2567138671877	-129.7489166259766	830.7129516601565	-931.8092041015627	-385.8063354492189	704.7145996093751	-935.4007568359377	-66.53280639648439	694.8645629882814	-933.5120849609377	-79.02674102783205	765.5925292968751	-1084.566040039063	-188.5073547363282	702.0816040039064	-1200.5908203125	-223.9167480468751	672.7114257812501	-1184.648193359375	-240.5608978271485	685.7513427734376	-1240.113403320313	-298.2444152832032	693.4110107421876	-1302.227172851563	-343.8323974609376	749.8020629882814	-1287.7509765625	-482.8587646484376	586.1642456054689	-1156.428588867188	-473.1172180175782	539.5127563476564	-1206.222778320313	-452.2285766601564	561.6350097656251	-1110.626220703125	-66.15862274169923	758.8511962890626	-789.4714355468752	-182.6006622314453	755.6718139648439	-640.8253784179689	-198.2604370117188	706.9878540039064	-637.7045898437501	-229.2494659423829	732.1718750000001	-592.0627441406251	-294.2577819824219	697.5458374023439	-555.4319458007814	-327.7641296386719	754.6905517578126	-564.4252929687501	-475.9898376464845	601.6341552734376	-720.0925903320314	-460.5035400390626	545.0086059570314	-682.6196899414064	-449.1661987304689	571.5317993164064	-773.813171386719	-437.4269409179689	512.2822875976564	-1040.494140625	-518.8119506835939	628.4221801757814	-939.6734008789065	-549.1091918945314	610.3312377929689	-965.498962402344	-546.4458007812501	608.7165527343751	-910.028991699219	-420.425994873047	437.6195373535157	-1176.188232421875	-344.2435913085938	470.720916748047	-1198.765014648438	-331.6731872558594	512.2514038085939	-1177.986450195313	-293.3430786132813	439.7017211914064	-1213.93896484375	-209.2871551513672	422.0020751953126	-1219.304443359375	-173.7320251464844	290.7762756347657	-1194.365600585938	-250.9267272949219	269.9190979003907	-1233.182250976563	-215.047592163086	256.1628112792969	-1213.600463867188	-245.2255401611329	186.5973358154297	-1172.004638671875	-364.1506347656251	95.55355072021486	-1179.28076171875	-328.7634277343751	96.41551208496097	-1099.035766601563	-414.267303466797	43.74441146850587	-1114.144165039063	-206.7785186767579	57.03378295898439	-1153.802856445313	-215.0175170898438	59.68251037597658	-1193.062133789063	-266.4573364257813	35.53708267211915	-1234.884643554688	-478.2308349609376	474.5528259277345	-723.7407836914064	-423.3071899414064	499.8063354492189	-718.4840698242189	-415.2009887695314	519.1748657226564	-747.5344848632814	-355.1190490722657	476.0050354003907	-681.0978393554689	-212.5713958740235	426.2414855957032	-656.1406250000001	-191.2752380371094	260.9729003906251	-705.2824096679689	-282.0467834472657	208.8062133789063	-666.5543212890626	-244.2559204101563	189.9207763671875	-692.4642333984376	-257.1657104492188	152.0085754394532	-732.2030029296876	-355.4812316894532	96.94438171386722	-705.8243408203126	-317.1949768066407	94.31764221191408	-778.417419433594	-401.9226989746095	43.8923454284668	-770.9868774414065	-200.4817199707032	53.90797805786134	-714.1390991210939	-213.1720886230469	61.66246032714845	-670.6476440429689	-268.6156616210938	42.04317855834962	-634.6636352539064	94.32653808593751	923.7634277343752	-873.7923583984377	nan	nan	nan	
